<svg width="42" height="42" viewBox="0 0 42 42" fill="none" xmlns="http://www.w3.org/2000/svg">
<path fill-rule="evenodd" clip-rule="evenodd" d="M20.8342 0C9.32779 0 0 9.32948 0 20.8342C0 32.3406 9.32779 41.6667 20.8342 41.6667C32.3406 41.6667 41.6667 32.3406 41.6667 20.8342C41.6667 9.32948 32.3397 0 20.8342 0ZM31.3287 16.6335C31.3397 16.8586 31.3439 17.0844 31.3439 17.3129C31.3439 24.2514 26.0628 32.2509 16.4059 32.2509C13.4413 32.2509 10.6806 31.382 8.35736 29.8929C8.76855 29.9411 9.18565 29.9657 9.60953 29.9657C12.0699 29.9657 14.3339 29.1264 16.1301 27.7186C13.833 27.6754 11.8947 26.1567 11.2263 24.0712C11.5462 24.1338 11.8753 24.1651 12.2137 24.1651C12.6926 24.1651 13.1562 24.1025 13.597 23.9815C11.1942 23.4993 9.38448 21.3757 9.38448 18.8341C9.38448 18.8113 9.38448 18.7893 9.38532 18.7664C10.0926 19.1598 10.9023 19.3959 11.7636 19.4238C10.3541 18.4804 9.42763 16.8755 9.42763 15.0531C9.42763 14.0911 9.68652 13.1884 10.1383 12.4134C12.7281 15.5895 16.5971 17.6801 20.9611 17.8984C20.8714 17.5151 20.8249 17.1132 20.8249 16.702C20.8249 13.8034 23.1752 11.4522 26.0755 11.4522C27.5857 11.4522 28.9496 12.0902 29.9073 13.1097C31.1036 12.8753 32.2272 12.4371 33.2416 11.8355C32.8482 13.0623 32.0165 14.0911 30.9319 14.74C31.9954 14.6131 33.0073 14.3305 33.9481 13.9134C33.2458 14.9685 32.3549 15.8932 31.3287 16.6335Z" fill="#D91D24"/>
</svg>
