<svg width="42" height="42" viewBox="0 0 42 42" fill="none" xmlns="http://www.w3.org/2000/svg">
<path fill-rule="evenodd" clip-rule="evenodd" d="M0.00244141 20.8333C0.00244141 9.31572 9.31816 0 20.8358 0C32.3534 0 41.7538 9.31572 41.6691 20.8333C41.6691 32.351 32.3534 41.6667 20.8358 41.6667C9.31816 41.6667 0.00244141 32.351 0.00244141 20.8333ZM30.0668 30.5725C31.2524 29.3869 31.9299 27.6931 31.9299 25.7453V16.4295C31.9299 14.4817 31.3371 12.8726 30.1515 11.687C28.9659 10.5014 27.3568 9.82385 25.4089 9.82385H16.0932C12.1129 9.82385 9.48754 12.5339 9.48754 16.4295V25.7453C9.48754 27.6931 10.0804 29.3869 11.3507 30.5725C12.5363 31.7581 14.2301 32.3509 16.0932 32.3509H25.3243C27.1874 32.3509 28.8812 31.7581 30.0668 30.5725ZM26.6793 16.3448C25.9171 16.3448 25.3243 15.752 25.3243 14.9898C25.3243 14.2276 25.9171 13.6348 26.6793 13.6348C27.4415 13.6348 28.0343 14.2276 28.0343 14.9898C28.0343 15.752 27.4415 16.3448 26.6793 16.3448ZM20.6664 15.2439C23.7999 15.2439 26.5099 17.7846 26.5099 21.0027C26.5099 24.2209 23.8846 26.7615 20.6664 26.7615C17.4482 26.7615 14.9076 24.1362 14.9076 21.0027C14.9076 17.7846 17.5329 15.2439 20.6664 15.2439ZM20.6664 17.3272C18.6494 17.3272 16.9909 18.969 16.9909 21.0027C16.9909 23.0197 18.6327 24.6782 20.6664 24.6782C22.7597 24.6782 24.4266 23.0447 24.4266 21.0027C24.4266 18.9939 22.7089 17.3272 20.6664 17.3272Z" fill="#D91D24"/>
</svg>
