<svg width="42" height="42" viewBox="0 0 42 42" fill="none" xmlns="http://www.w3.org/2000/svg">
<path fill-rule="evenodd" clip-rule="evenodd" d="M20.8341 0C9.32804 0 0 9.32644 0 20.8325C0 32.3386 9.32804 41.6667 20.8341 41.6667C32.3393 41.6667 41.6674 32.3386 41.6674 20.8325C41.6675 9.32644 32.3393 0 20.8341 0ZM20.9113 32.9297C19.6133 32.9297 18.3601 32.7518 17.177 32.4224L12.7443 34.8704V30.2456C9.78568 28.0223 7.89245 24.6174 7.89245 20.8003C7.89245 14.1015 13.7212 8.67108 20.9113 8.67108C28.1013 8.67108 33.9301 14.1015 33.9301 20.8003C33.9301 27.4993 28.1015 32.9297 20.9113 32.9297ZM12.4208 25.0052L19.5367 17.4042L22.9329 20.9621L29.3211 17.4042L22.2051 25.0052L18.8898 21.4473L12.4208 25.0052Z" fill="#D91D24"/>
</svg>
