<svg width="42" height="42" viewBox="0 0 42 42" fill="none" xmlns="http://www.w3.org/2000/svg">
<path fill-rule="evenodd" clip-rule="evenodd" d="M20.8342 0C9.32779 0 0 9.32948 0 20.8342C0 32.3406 9.32779 41.6667 20.8342 41.6667C32.3406 41.6667 41.6684 32.3406 41.6684 20.8342C41.6684 9.32948 32.3397 0 20.8342 0ZM26.3479 20.747H22.7403C22.7403 26.5121 22.7403 33.613 22.7403 33.613H17.3933C17.3933 33.613 17.3933 26.5848 17.3933 20.747H14.85V16.2045H17.3933V13.2611C17.3933 11.1544 18.3933 7.8658 22.7903 7.8658L26.7498 7.88103V12.2932C26.7498 12.2932 24.3419 12.2932 23.8749 12.2932C23.4053 12.2932 22.7412 12.5276 22.7412 13.5293V16.2054H26.8175L26.3479 20.747Z" fill="#D91D24"/>
</svg>
